<svg xmlns="http://www.w3.org/2000/svg" viewBox="0 0 100 100" fill="none">
  <!-- Premium rounded square background in theme color -->
  <rect width="100" height="100" rx="22" fill="#cc785c"/>
  
  <g transform="translate(10, 10) scale(0.8)">
    <!-- Central Star - Shining Gold at the heart of the Lotus -->
    <polygon points="50,42 52.5,50 60,50 54,55 56,62 50,58 44,62 46,55 40,50 47.5,50" fill="#f5c542" />
    <!-- Central Petal -->
    <path d="M 50 15 C 44 32, 44 65, 50 82 C 56 65, 56 32, 50 15 Z" fill="white" />
    <!-- Inner Left Petal -->
    <path d="M 46 82 C 38 65, 28 42, 33 26 C 39 23, 44 48, 46 82 Z" fill="white" />
    <!-- Inner Right Petal -->
    <path d="M 54 82 C 62 65, 72 42, 67 26 C 61 23, 56 48, 54 82 Z" fill="white" />
    <!-- Outer Left Petal -->
    <path d="M 42 82 C 26 70, 10 52, 16 35 C 24 30, 34 55, 42 82 Z" fill="white" />
    <!-- Outer Right Petal -->
    <path d="M 58 82 C 74 70, 90 52, 84 35 C 76 30, 66 55, 58 82 Z" fill="white" />
    <!-- Supporting Bottom Leaves -->
    <path d="M 40 84 C 20 88, 12 88, 6 82 C 14 74, 30 74, 40 84 Z" fill="white" opacity="0.8" />
    <path d="M 60 84 C 80 88, 88 88, 94 82 C 86 74, 70 74, 60 84 Z" fill="white" opacity="0.8" />
  </g>
</svg>